PathFileType	4	(X/Y/Z)	/Users/itak/Documents/Research/Walk-IL/dataset/trc/00144_00007.trc
DataRate	CameraRate	NumFrames	NumMarkers	Units	OrigDataRate	OrigDataStartFrame	OrigNumFrames
100.000000	100.000000	4	53	mm	100.000000	128	512
Frame#	Time	RPSI			LPSI			L3			STRN			T10			C7			CLAV			RBAK			LBAK			LSHO			LUPA			LAEL			LAOL			LWTS			LWPS			LFRA			LIFD			LHPS			LHTS			RSHO			RUPA			RAEL			RAOL			RWTS			RWPS			RFRA			RIFD			RHTS			RHPS			RBHD			LFHD			RFHD			LBHD			LHIP			RHIP			RASI			LASI			LKNE			LTHI			LANK			LTIP			LTOE			LMT1			LMT5			LHEE			RKNE			RTHI			RANK			RTIP			RTOE			RMT1			RMT5			RHEE			
		X1	Y1	Z1	X2	Y2	Z2	X3	Y3	Z3	X4	Y4	Z4	X5	Y5	Z5	X6	Y6	Z6	X7	Y7	Z7	X8	Y8	Z8	X9	Y9	Z9	X10	Y10	Z10	X11	Y11	Z11	X12	Y12	Z12	X13	Y13	Z13	X14	Y14	Z14	X15	Y15	Z15	X16	Y16	Z16	X17	Y17	Z17	X18	Y18	Z18	X19	Y19	Z19	X20	Y20	Z20	X21	Y21	Z21	X22	Y22	Z22	X23	Y23	Z23	X24	Y24	Z24	X25	Y25	Z25	X26	Y26	Z26	X27	Y27	Z27	X28	Y28	Z28	X29	Y29	Z29	X30	Y30	Z30	X31	Y31	Z31	X32	Y32	Z32	X33	Y33	Z33	X34	Y34	Z34	X35	Y35	Z35	X36	Y36	Z36	X37	Y37	Z37	X38	Y38	Z38	X39	Y39	Z39	X40	Y40	Z40	X41	Y41	Z41	X42	Y42	Z42	X43	Y43	Z43	X44	Y44	Z44	X45	Y45	Z45	X46	Y46	Z46	X47	Y47	Z47	X48	Y48	Z48	X49	Y49	Z49	X50	Y50	Z50	X51	Y51	Z51	X52	Y52	Z52	X53	Y53	Z53	

129	1.28	-793.0730590820312	1127.48779296875	1227.314208984375	-801.4026489257812	1128.1728515625	1092.285888671875	-803.2683715820312	1162.385131835938	1158.286010742188	-584.094482421875	1355.20654296875	1148.418090820312	-837.4382934570312	1314.978271484375	1161.3994140625	-794.576904296875	1605.748046875	1147.021362304688	-616.8787841796875	1490.904296875	1146.55078125	-851.5390625	1423.407470703125	1236.740600585938	-807.0558471679688	1586.203857421875	1045.3603515625	-724.0248413085938	1567.965942382812	972.6738891601562	-751.5169677734375	1436.952880859375	903.8694458007812	-740.205322265625	1217.158569335938	881.9855346679688	-806.8008422851562	1207.045043945312	939.8151245117188	-637.4848022460938	960.9910888671875	928.8380126953125	-718.013427734375	933.5074462890625	901.6173095703125	-722.8277587890625	1100.744995117188	879.1510620117188	-616.4388427734375	769.0390014648438	948.9987182617188	-687.7539672851562	859.0321044921875	902.9381103515625	-620.7623901367188	873.0850219726562	918.9254150390625	-731.0393676757812	1583.882690429688	1325.027099609375	-747.1146240234375	1510.724731445312	1389.541137695312	-759.1420288085938	1216.359375	1410.439453125	-770.8175048828125	1215.621704101562	1315.326416015625	-613.99951171875	973.1458740234375	1390.101196289062	-687.2510375976562	956.9194946289062	1426.531127929688	-734.192138671875	1142.628051757812	1425.845703125	-586.95947265625	778.7532958984375	1375.685180664062	-584.0650634765625	865.7572631835938	1394.960327148438	-648.54248046875	857.2339477539062	1427.264770507812	-736.4056396484375	1776.536987304688	1222.844604492188	-591.3701171875	1834.327758789062	1066.741577148438	-573.8349609375	1842.587280273438	1195.866943359375	-761.931640625	1771.372192382812	1090.257446289062	-712.0185546875	1037.756591796875	976.5568237304688	-660.8482055664062	1027.361572265625	1339.05810546875	-581.4161376953125	1099.162353515625	1282.556640625	-604.5357666015625	1101.284423828125	1016.565002441406	-599.3201293945312	534.9557495117188	1003.227661132812	-645.6707153320312	681.2019653320312	978.948974609375	-820.1151733398438	59.0149040222168	987.578125	-752.2083129882812	307.5840759277344	969.1559448242188	-593.0744018554688	41.00972366333008	1042.098510742188	-671.6390991210938	46.94573974609375	1076.411743164062	-696.7046508789062	39.81744766235352	962.8777465820312	-889.444091796875	71.55440521240234	1049.36279296875	-676.30908203125	534.732177734375	1281.10791015625	-642.8418579101562	811.9846801757812	1321.923950195312	-816.6973876953125	31.85663414001465	1250.5322265625	-706.60888671875	399.9540100097656	1289.508178710938	-585.930908203125	53.12435913085938	1197.583862304688	-644.6459350585938	40.81544876098633	1156.036987304688	-682.9406127929688	44.47348022460938	1271.231079101562	-874.7020874023438	31.93802452087402	1201.984497070312	
130	1.29	-792.5719604492188	1127.503173828125	1228.19482421875	-801.4991455078125	1128.045043945312	1093.225463867188	-802.9954833984375	1162.637939453125	1159.311889648438	-582.9560546875	1354.780517578125	1148.976440429688	-836.3137817382812	1315.41455078125	1162.902465820312	-792.336669921875	1606.087768554688	1148.509643554688	-615.1046752929688	1490.624389648438	1147.247924804688	-849.5953979492188	1423.910766601562	1238.342041015625	-805.2557983398438	1586.5927734375	1046.885986328125	-722.6046142578125	1568.071166992188	973.8076171875	-750.9600830078125	1437.127075195312	905.20556640625	-740.6990356445312	1217.303466796875	883.3545532226562	-806.853271484375	1207.412231445312	941.6763305664062	-638.1023559570312	960.9962158203125	929.3637084960938	-718.8546752929688	933.61376953125	902.85693359375	-723.6610107421875	1100.846313476562	880.3742065429688	-617.0652465820312	769.0158081054688	949.48486328125	-688.7139892578125	859.1224975585938	903.9277954101562	-621.562744140625	873.0782470703125	919.3643188476562	-728.1241455078125	1583.865966796875	1326.195068359375	-744.1494140625	1510.76708984375	1390.747802734375	-756.6944580078125	1216.505004882812	1412.231201171875	-768.8455810546875	1215.634887695312	1317.184936523438	-611.4608764648438	973.3401489257812	1391.5390625	-684.555908203125	957.0772705078125	1428.272094726562	-731.664794921875	1142.759521484375	1427.58251953125	-584.3668823242188	778.9364624023438	1377.194458007812	-581.460205078125	865.8775024414062	1396.447998046875	-645.7687377929688	857.4049072265625	1428.951416015625	-733.5753173828125	1776.462768554688	1224.088256835938	-589.11572265625	1833.93701171875	1067.296508789062	-571.04052734375	1842.302734375	1196.345458984375	-759.6442260742188	1771.178466796875	1091.591430664062	-711.9827880859375	1037.558715820312	977.309326171875	-660.383056640625	1027.246826171875	1339.735961914062	-580.8724975585938	1098.778076171875	1283.18017578125	-604.731201171875	1101.17138671875	1017.291015625	-590.8643188476562	536.0693969726562	1004.760314941406	-639.5822143554688	681.8670043945312	980.4492797851562	-819.05908203125	62.671142578125	988.3074340820312	-746.870361328125	310.2959594726562	970.6156616210938	-592.8822021484375	41.13306427001953	1041.214111328125	-670.6342163085938	47.5472412109375	1076.162109375	-696.4940185546875	40.50703048706055	963.2778930664062	-887.557373046875	76.55738830566406	1050.739990234375	-676.1974487304688	534.5681762695312	1281.737182617188	-642.5406494140625	811.8049926757812	1322.608520507812	-816.7191162109375	31.81142807006836	1250.595947265625	-706.55810546875	399.8142700195312	1290.056030273438	-585.913818359375	53.07228088378906	1197.5400390625	-644.6334228515625	40.95803451538086	1155.982055664062	-682.9627075195312	44.42141723632812	1271.231079101562	-874.7800903320312	31.90537071228027	1202.076049804688	
131	1.3	-792.0215454101562	1127.49853515625	1229.01025390625	-801.5217895507812	1127.888671875	1094.094604492188	-802.6614379882812	1162.868041992188	1160.27685546875	-581.74072265625	1354.335327148438	1149.5009765625	-835.07275390625	1315.83154296875	1164.3603515625	-789.9971313476562	1606.402465820312	1149.95849609375	-613.2461547851562	1490.326293945312	1147.898559570312	-847.5584106445312	1424.393798828125	1239.92041015625	-803.3649291992188	1586.964111328125	1048.380981445312	-721.1036987304688	1568.16064453125	974.895751953125	-750.3643798828125	1437.290283203125	906.5181884765625	-741.1820068359375	1217.433227539062	884.7191772460938	-806.8726196289062	1207.775512695312	943.5714111328125	-638.7373657226562	960.9741821289062	929.8355102539062	-719.7322998046875	933.7125854492188	904.090087890625	-724.5228271484375	1100.930053710938	881.6004638671875	-617.7264404296875	768.9655151367188	949.8853149414062	-689.7167358398438	859.2000732421875	904.8817138671875	-622.4074096679688	873.039306640625	919.73388671875	-725.0980224609375	1583.818603515625	1327.320190429688	-741.0619506835938	1510.79833984375	1391.91845703125	-754.1629638671875	1216.649169921875	1414.010864257812	-766.7984619140625	1215.62744140625	1319.028564453125	-608.773193359375	973.5654907226562	1392.951049804688	-681.6903076171875	957.234130859375	1429.970458984375	-729.0442504882812	1142.879516601562	1429.302368164062	-581.549072265625	779.1697387695312	1378.644775390625	-578.6560668945312	866.0654907226562	1397.864990234375	-642.8056640625	857.583984375	1430.596923828125	-730.6439819335938	1776.342407226562	1225.310791015625	-586.7896728515625	1833.523071289062	1067.828247070312	-568.158935546875	1841.98388671875	1196.798095703125	-757.2731323242188	1770.960083007812	1092.915771484375	-711.8516235351562	1037.343872070312	978.0485229492188	-659.9078369140625	1027.140747070312	1340.390991210938	-580.2689819335938	1098.398559570312	1283.7958984375	-604.8118286132812	1101.058837890625	1017.998046875	-582.2739868164062	537.3558349609375	1006.317504882812	-633.3842163085938	682.647705078125	981.9217529296875	-817.774658203125	66.60480499267578	989.1731567382812	-741.1952514648438	313.1974182128906	972.14013671875	-592.5253295898438	41.25620269775391	1040.19384765625	-669.3683471679688	48.2282829284668	1075.924926757812	-696.2096557617188	41.37234115600586	963.7001953125	-885.33203125	81.84445953369141	1052.238525390625	-676.0973510742188	534.402587890625	1282.39697265625	-642.2826538085938	811.6194458007812	1323.312744140625	-816.7413940429688	31.7628059387207	1250.66015625	-706.549560546875	399.6868896484375	1290.630004882812	-585.8690795898438	53.01112365722656	1197.541259765625	-644.6018676757812	41.12277603149414	1155.960815429688	-682.990234375	44.34085083007812	1271.254760742188	-874.8491821289062	31.8740406036377	1202.160766601562	
132	1.31	-791.406982421875	1127.467163085938	1229.7568359375	-801.4332885742188	1127.704223632812	1094.892700195312	-802.2476806640625	1163.0712890625	1161.175659179688	-580.4336547851562	1353.865478515625	1149.99072265625	-833.6998291015625	1316.214599609375	1165.760986328125	-787.5528564453125	1606.67236328125	1151.357543945312	-611.2976684570312	1490.002319335938	1148.498168945312	-845.4330444335938	1424.849365234375	1241.468627929688	-801.3765258789062	1587.308227539062	1049.8330078125	-719.515625	1568.222045898438	975.931640625	-749.718017578125	1437.430419921875	907.8021850585938	-741.6438598632812	1217.536743164062	886.068359375	-806.8517456054688	1208.121826171875	945.4839477539062	-639.3837890625	960.91455078125	930.2557983398438	-720.6392822265625	933.7955322265625	905.3114013671875	-725.401123046875	1100.987426757812	882.8263549804688	-618.4275512695312	768.8778076171875	950.2008056640625	-690.7520751953125	859.2498779296875	905.796875	-623.2929077148438	872.955322265625	920.0386352539062	-721.963134765625	1583.732788085938	1328.396728515625	-737.8582763671875	1510.80615234375	1393.049072265625	-751.550537109375	1216.776977539062	1415.772827148438	-764.6791381835938	1215.586303710938	1320.855712890625	-605.9298706054688	973.8146362304688	1394.326416015625	-678.6454467773438	957.3810424804688	1431.618041992188	-726.3284912109375	1142.976196289062	1430.99853515625	-578.4963989257812	779.4448852539062	1380.032470703125	-575.6502075195312	866.3134765625	1399.196533203125	-639.647705078125	857.767578125	1432.19189453125	-727.609375	1776.171752929688	1226.506958007812	-584.3931884765625	1833.080688476562	1068.331909179688	-565.1875	1841.628540039062	1197.218505859375	-754.8207397460938	1770.710205078125	1094.229125976562	-711.59033203125	1037.10400390625	978.7669677734375	-659.4075317382812	1027.034912109375	1341.024047851562	-579.590087890625	1098.016845703125	1284.408569335938	-604.7570190429688	1100.934814453125	1018.689147949219	-573.6363525390625	538.791015625	1007.876525878906	-627.13525390625	683.5218505859375	983.350830078125	-816.2001953125	70.74960327148438	990.1985473632812	-735.2377319335938	316.2359313964844	973.73583984375	-591.9169311523438	41.40663146972656	1039.068237304688	-667.7628784179688	48.99436187744141	1075.716796875	-695.7734985351562	42.43292617797852	964.1510009765625	-882.7291870117188	87.30164337158203	1053.863403320312	-676.0264892578125	534.2385864257812	1283.094360351562	-642.0376586914062	811.4307861328125	1324.033935546875	-816.7659912109375	31.71073341369629	1250.724609375	-706.5908813476562	399.5715026855469	1291.231079101562	-585.8015747070312	52.95370483398438	1197.587890625	-644.5616455078125	41.31832504272461	1155.974365234375	-683.0225219726562	44.23414611816406	1271.300415039062	-874.9113159179688	31.84253883361816	1202.239135742188	
